<svg xmlns="http://www.w3.org/2000/svg" width="168.455" height="50.282" viewBox="0 0 168.455 50.282">
  <g id="Group_2" data-name="Group 2" transform="translate(-130 -25)">
    <path id="Vector" d="M0,3V0H3V3Z" transform="translate(295.455 62.9)"/>
    <path id="Vector-2" data-name="Vector" d="M4.94,11.4a5.788,5.788,0,0,1-3.14-.84A4.313,4.313,0,0,1,0,8.26L2.2,7.22A3.441,3.441,0,0,0,3.34,8.6a2.742,2.742,0,0,0,1.6.5,1.589,1.589,0,0,0,.98-.26.856.856,0,0,0,.34-.72.648.648,0,0,0-.12-.4,1.067,1.067,0,0,0-.36-.32,2.551,2.551,0,0,0-.6-.24L3.32,6.64A4.1,4.1,0,0,1,1.26,5.42,3.049,3.049,0,0,1,.54,3.4a3.075,3.075,0,0,1,.52-1.78A3.4,3.4,0,0,1,2.52.44,5.041,5.041,0,0,1,4.68,0a5.121,5.121,0,0,1,2.8.76A4,4,0,0,1,9.2,2.86L6.98,3.9A2.053,2.053,0,0,0,6.1,2.82,2.472,2.472,0,0,0,4.68,2.4a1.568,1.568,0,0,0-.92.24.78.78,0,0,0-.32.66.705.705,0,0,0,.12.4,1.03,1.03,0,0,0,.38.32,4.292,4.292,0,0,0,.68.26l1.74.52A4.3,4.3,0,0,1,8.44,6.02,2.851,2.851,0,0,1,9.16,8a2.994,2.994,0,0,1-.54,1.78,3.536,3.536,0,0,1-1.46,1.2,5.406,5.406,0,0,1-2.22.42Z" transform="translate(283.022 54.74)"/>
    <path id="Vector-3" data-name="Vector" d="M5.7,11.4a5.806,5.806,0,0,1-3.02-.76A5.393,5.393,0,0,1,.7,8.56,5.977,5.977,0,0,1,0,5.68,5.853,5.853,0,0,1,.72,2.76,5.534,5.534,0,0,1,2.7.74,5.358,5.358,0,0,1,5.5,0,5.9,5.9,0,0,1,7.8.42,4.527,4.527,0,0,1,9.48,1.56a4.965,4.965,0,0,1,1.06,1.72,5.936,5.936,0,0,1,.36,2.1,5.156,5.156,0,0,1-.04.64,1.9,1.9,0,0,1-.1.52H2.58V4.34H9.06L7.64,5.38a2.776,2.776,0,0,0-.02-1.52A1.973,1.973,0,0,0,6.84,2.8,2.189,2.189,0,0,0,5.5,2.4a2.329,2.329,0,0,0-1.34.38A2.278,2.278,0,0,0,3.32,3.9,4.391,4.391,0,0,0,3.1,5.7a3.333,3.333,0,0,0,.22,1.62,2.4,2.4,0,0,0,.92,1.1,2.817,2.817,0,0,0,1.5.38A2.7,2.7,0,0,0,7.1,8.48,2.286,2.286,0,0,0,8,7.6l2.4,1.14a3.583,3.583,0,0,1-1.02,1.4,4.977,4.977,0,0,1-1.62.94,6.357,6.357,0,0,1-2.06.32Z" transform="translate(271.016 54.74)"/>
    <path id="Vector-4" data-name="Vector" d="M0,14.9V3.98H3V14.9ZM0,3V0H3V3Z" transform="translate(266.261 51)"/>
    <path id="Vector-5" data-name="Vector" d="M5.8,15.56a6.4,6.4,0,0,1-2.34-.42A5.472,5.472,0,0,1,1.6,13.96,4.332,4.332,0,0,1,.5,12.2l2.78-.98a2.079,2.079,0,0,0,.9,1.2,2.917,2.917,0,0,0,1.62.44,2.747,2.747,0,0,0,1.28-.28,1.788,1.788,0,0,0,.82-.78,2.4,2.4,0,0,0,.3-1.22V8.08l.58.72a3.661,3.661,0,0,1-1.44,1.38,4.552,4.552,0,0,1-2.06.44,5.419,5.419,0,0,1-2.72-.68A5.043,5.043,0,0,1,.68,8.04,5.572,5.572,0,0,1,0,5.28,5.349,5.349,0,0,1,.68,2.56,4.939,4.939,0,0,1,2.54.68,5.27,5.27,0,0,1,5.22,0,4.236,4.236,0,0,1,7.28.48,4,4,0,0,1,8.78,1.9l-.38.72V.24h2.8V10.58a4.729,4.729,0,0,1-.7,2.56,4.849,4.849,0,0,1-1.92,1.78,5.819,5.819,0,0,1-2.78.64ZM5.7,7.9a2.616,2.616,0,0,0,1.32-.32,2.154,2.154,0,0,0,.86-.9A2.771,2.771,0,0,0,8.2,5.32a2.771,2.771,0,0,0-.32-1.36A2.254,2.254,0,0,0,7,3.04,2.455,2.455,0,0,0,5.7,2.7a2.71,2.71,0,0,0-1.36.34,2.348,2.348,0,0,0-.92.92A2.771,2.771,0,0,0,3.1,5.32a2.729,2.729,0,0,0,.32,1.34,2.536,2.536,0,0,0,.92.92A2.845,2.845,0,0,0,5.7,7.9Z" transform="translate(252.852 54.74)"/>
    <path id="Vector-6" data-name="Vector" d="M5.7,11.4a5.806,5.806,0,0,1-3.02-.76A5.393,5.393,0,0,1,.7,8.56,5.977,5.977,0,0,1,0,5.68,5.853,5.853,0,0,1,.72,2.76,5.534,5.534,0,0,1,2.7.74,5.358,5.358,0,0,1,5.5,0,5.9,5.9,0,0,1,7.8.42,4.527,4.527,0,0,1,9.48,1.56a4.965,4.965,0,0,1,1.06,1.72,5.936,5.936,0,0,1,.36,2.1,5.154,5.154,0,0,1-.04.64,1.9,1.9,0,0,1-.1.52H2.58V4.34H9.06L7.64,5.38a2.776,2.776,0,0,0-.02-1.52A1.973,1.973,0,0,0,6.84,2.8,2.189,2.189,0,0,0,5.5,2.4a2.329,2.329,0,0,0-1.34.38A2.278,2.278,0,0,0,3.32,3.9,4.391,4.391,0,0,0,3.1,5.7a3.333,3.333,0,0,0,.22,1.62,2.4,2.4,0,0,0,.92,1.1,2.817,2.817,0,0,0,1.5.38A2.7,2.7,0,0,0,7.1,8.48,2.286,2.286,0,0,0,8,7.6l2.4,1.14a3.583,3.583,0,0,1-1.02,1.4,4.977,4.977,0,0,1-1.62.94,6.357,6.357,0,0,1-2.06.32Z" transform="translate(240.625 54.74)"/>
    <path id="Vector-7" data-name="Vector" d="M6,13.52a4.256,4.256,0,0,1-3.08-1.06,4.055,4.055,0,0,1-1.08-3V5.08H0V2.48H.1a1.784,1.784,0,0,0,1.28-.42A1.622,1.622,0,0,0,1.84.8V0h3V2.48H7.4v2.6H4.84V9.26a2,2,0,0,0,.2.94,1.24,1.24,0,0,0,.62.54,2.644,2.644,0,0,0,1.04.18,2.934,2.934,0,0,0,.32-.02l.38-.04V13.4q-.3.04-.68.08a6.891,6.891,0,0,1-.72.04Z" transform="translate(231.907 52.5)"/>
    <path id="Vector-8" data-name="Vector" d="M3.82,11.4a5.019,5.019,0,0,1-2.04-.38A2.963,2.963,0,0,1,.46,9.94,3.089,3.089,0,0,1,0,8.24,3.087,3.087,0,0,1,.42,6.62,3.287,3.287,0,0,1,1.7,5.42a6.663,6.663,0,0,1,2.18-.68L7.22,4.2V6.4l-2.8.5a2.022,2.022,0,0,0-.98.42,1,1,0,0,0-.34.82.914.914,0,0,0,.38.78,1.541,1.541,0,0,0,.94.28,2.574,2.574,0,0,0,1.3-.32,2.221,2.221,0,0,0,.86-.86A2.417,2.417,0,0,0,6.9,6.8V3.96a1.306,1.306,0,0,0-.5-1.04A1.936,1.936,0,0,0,5.08,2.5a2.392,2.392,0,0,0-1.42.44A2.552,2.552,0,0,0,2.78,4.1L.38,2.96A3.9,3.9,0,0,1,1.4,1.38,4.856,4.856,0,0,1,3.08.36,6.162,6.162,0,0,1,5.22,0,5.658,5.658,0,0,1,7.66.5,3.85,3.85,0,0,1,9.3,1.9a3.568,3.568,0,0,1,.6,2.06v7.2H7.1V9.4l.68-.12a5.5,5.5,0,0,1-1.06,1.2,3.912,3.912,0,0,1-1.3.68,5.039,5.039,0,0,1-1.6.24Z" transform="translate(220.742 54.74)"/>
    <path id="Vector-9" data-name="Vector" d="M0,11.04V.12H2.8V2.74l-.2-.38A2.861,2.861,0,0,1,3.78.5,3.8,3.8,0,0,1,5.76,0H6.4V2.6H5.46a2.407,2.407,0,0,0-1.78.68A2.5,2.5,0,0,0,3,5.16v5.88Z" transform="translate(213.468 54.86)"/>
    <path id="Vector-10" data-name="Vector" d="M6,13.52a4.256,4.256,0,0,1-3.08-1.06,4.055,4.055,0,0,1-1.08-3V5.08H0V2.48H.1a1.784,1.784,0,0,0,1.28-.42A1.622,1.622,0,0,0,1.84.8V0h3V2.48H7.4v2.6H4.84V9.26a2,2,0,0,0,.2.94,1.24,1.24,0,0,0,.62.54,2.644,2.644,0,0,0,1.04.18,2.934,2.934,0,0,0,.32-.02l.38-.04V13.4q-.3.04-.68.08a6.891,6.891,0,0,1-.72.04Z" transform="translate(204.31 52.5)"/>
    <path id="Vector-11" data-name="Vector" d="M6.08,15.38a6.992,6.992,0,0,1-2.64-.5,6.348,6.348,0,0,1-2.12-1.46A6.111,6.111,0,0,1,0,11.2l2.54-1.14a4.717,4.717,0,0,0,1.54,1.92,3.753,3.753,0,0,0,2.2.7,2.748,2.748,0,0,0,1.1-.2,1.772,1.772,0,0,0,.72-.54,1.4,1.4,0,0,0,.26-.84,1.277,1.277,0,0,0-.32-.88,2.13,2.13,0,0,0-1-.6L4.12,8.66A5.756,5.756,0,0,1,1.44,7.02a3.9,3.9,0,0,1-.9-2.58,4.21,4.21,0,0,1,.64-2.32A4.437,4.437,0,0,1,3,.56,6.226,6.226,0,0,1,5.7,0,6.566,6.566,0,0,1,8.18.46a5.665,5.665,0,0,1,1.96,1.3A5.35,5.35,0,0,1,11.4,3.78L8.88,4.92A3.5,3.5,0,0,0,7.62,3.3,3.22,3.22,0,0,0,5.7,2.7a2.84,2.84,0,0,0-1.1.2,1.626,1.626,0,0,0-.74.58,1.4,1.4,0,0,0-.26.84,1.379,1.379,0,0,0,.34.92,2.278,2.278,0,0,0,1.02.6l2.86.92A5.706,5.706,0,0,1,10.5,8.38a3.747,3.747,0,0,1,.9,2.54,4.087,4.087,0,0,1-.68,2.32,4.675,4.675,0,0,1-1.88,1.58,6.374,6.374,0,0,1-2.76.56Z" transform="translate(191.66 50.76)"/>
    <path id="Vector-12" data-name="Vector" d="M0,11.16V.24H2.8V2.4l-.16-.48A2.676,2.676,0,0,1,3.86.48a4.036,4.036,0,0,1,2-.48A4.317,4.317,0,0,1,8.02.52,3.663,3.663,0,0,1,9.48,1.98,4.317,4.317,0,0,1,10,4.14v7.02H7V4.78a2.2,2.2,0,0,0-.26-1.1,1.734,1.734,0,0,0-.7-.72A2.007,2.007,0,0,0,5,2.7a2.076,2.076,0,0,0-1.04.26,1.868,1.868,0,0,0-.72.72A2.35,2.35,0,0,0,3,4.78v6.38Z" transform="translate(232.198 34.74)"/>
    <path id="Vector-13" data-name="Vector" d="M5.86,11.4a6.02,6.02,0,0,1-2.96-.74A5.813,5.813,0,0,1,.78,8.64,5.6,5.6,0,0,1,0,5.7,5.536,5.536,0,0,1,.78,2.76,5.813,5.813,0,0,1,2.9.74,6.02,6.02,0,0,1,5.86,0,5.908,5.908,0,0,1,8.8.74a5.655,5.655,0,0,1,2.1,2.02,5.431,5.431,0,0,1,.8,2.94,5.5,5.5,0,0,1-.8,2.94,5.655,5.655,0,0,1-2.1,2.02,5.908,5.908,0,0,1-2.94.74Zm0-2.7a2.6,2.6,0,0,0,1.42-.38,2.551,2.551,0,0,0,.96-1.06A3.284,3.284,0,0,0,8.6,5.7a3.166,3.166,0,0,0-.36-1.54A2.552,2.552,0,0,0,7.28,3.1a2.5,2.5,0,0,0-1.42-.4,2.6,2.6,0,0,0-1.44.4,2.69,2.69,0,0,0-.98,1.06A3.318,3.318,0,0,0,3.1,5.7a3.443,3.443,0,0,0,.34,1.56A2.623,2.623,0,0,0,5.86,8.7Z" transform="translate(218.73 34.74)"/>
    <path id="Vector-14" data-name="Vector" d="M5.7,11.4a5.806,5.806,0,0,1-3.02-.76A5.393,5.393,0,0,1,.7,8.56,5.977,5.977,0,0,1,0,5.68,5.853,5.853,0,0,1,.72,2.76,5.534,5.534,0,0,1,2.7.74,5.358,5.358,0,0,1,5.5,0,5.9,5.9,0,0,1,7.8.42,4.527,4.527,0,0,1,9.48,1.56a4.965,4.965,0,0,1,1.06,1.72,5.936,5.936,0,0,1,.36,2.1,5.154,5.154,0,0,1-.04.64,1.9,1.9,0,0,1-.1.52H2.58V4.34H9.06L7.64,5.38a2.776,2.776,0,0,0-.02-1.52A1.973,1.973,0,0,0,6.84,2.8,2.189,2.189,0,0,0,5.5,2.4a2.329,2.329,0,0,0-1.34.38A2.278,2.278,0,0,0,3.32,3.9,4.391,4.391,0,0,0,3.1,5.7a3.333,3.333,0,0,0,.22,1.62,2.4,2.4,0,0,0,.92,1.1,2.817,2.817,0,0,0,1.5.38A2.7,2.7,0,0,0,7.1,8.48,2.286,2.286,0,0,0,8,7.6l2.4,1.14a3.583,3.583,0,0,1-1.02,1.4,4.977,4.977,0,0,1-1.62.94,6.357,6.357,0,0,1-2.06.32Z" transform="translate(206.504 34.74)"/>
    <path id="Vector-15" data-name="Vector" d="M0,14.9V0H2.38l8,10.54-1.28.3V0h3.1V14.9H9.8L1.94,4.28l1.16-.3V14.9Z" transform="translate(192.32 31)"/>
    <path id="Vector-16" data-name="Vector" d="M8.077,18.451c-1.191,10.806,3.768,26.466,3.768,26.466l.579,1.686L1.713,48.962a15.769,15.769,0,0,1-.251-1.789S-.747,28.908,4.346,19.311l1.746-3.27c.019-.032.039-.06.059-.092L0,7.958,9.432,0,33.924,31.831c1.191-10.806-3.768-26.465-3.768-26.465L29.576,3.68,40.286,1.32a15.673,15.673,0,0,1,.251,1.789s2.21,18.266-2.884,27.863l-1.746,3.269c-.019.032-.039.06-.058.093L42,42.325l-9.431,7.958Z" transform="translate(130 25)" fill="#001897"/>
  </g>
</svg>
